<svg id="TamburaTeam_Logo" data-name="TamburaTeam Logo" xmlns="http://www.w3.org/2000/svg" viewBox="0 0 321.75 386.44"><defs><style>.cls-1{fill:#221f20;}</style></defs><title>tt_black</title><path id="TamburaTeam_logo_black" data-name="TamburaTeam logo black" class="cls-1" d="M339.93,114.46c-3.73-35.69-23.5-67.82-52.9-86-26-16.81-60.35-25.7-99.45-25.7H171.47c-39.06,0-73.41,8.89-99.41,25.7C42.66,46.64,22.9,78.77,19.2,114.26,12,176.53,86.08,304.81,126.27,353.43c20.07,23.73,35.37,34.63,50.56,35.81V234.64c0-44.61,0-89.41,0-136.16H83.19q.19,18.74.38,37.45l53.54-.13L138.48,307C97,247.55,54.28,153.83,58.34,118.55c2.48-23.7,15.4-44.89,34.56-56.64l.41-.28c19.6-12.74,46.65-19.47,78.17-19.47H187.6c31.58,0,58.61,6.73,78.23,19.47l.41.28c19.18,11.78,32.09,32.94,34.59,56.87,4.38,37.78-38.1,134.51-80.17,188.77L222,135.8l53.42.13q.24-18.74.49-37.45H182.32V348.23l0,0v41c15.19-1.16,30.78-12.19,50.12-35.24,25.25-25.54,53.45-69.15,75.54-116.93,11.1-24,36.44-84,32-122.58Z" transform="translate(-18.71 -2.79)"/></svg>