<svg id="TamburaTeam_Logo" data-name="TamburaTeam Logo" xmlns="http://www.w3.org/2000/svg" viewBox="0 0 320.97 385.5"><defs><style>.cls-1{fill:#fbfbfb;}</style></defs><title>tt_white</title><path id="TamburaTeam_logo_white" data-name="TamburaTeam logo white" class="cls-1" d="M338,115.3c-3.72-35.61-23.44-67.66-52.77-85.77C259.27,12.76,225,3.9,186,3.9H169.9c-39,0-73.23,8.86-99.16,25.63C41.41,47.64,21.69,79.69,18,115.09c-7.15,62.12,66.72,190.08,106.81,238.58,20,23.68,35.28,34.55,50.44,35.72V235.18c0-44.5,0-89.19,0-135.83H81.84q.19,18.69.38,37.36l53.41-.13L137,307.4c-41.33-59.35-84-152.84-79.94-188,2.48-23.64,15.36-44.78,34.47-56.51l.41-.27c19.56-12.71,46.54-19.43,78-19.43H186c31.5,0,58.47,6.72,78,19.43l.41.27c19.13,11.76,32,32.87,34.51,56.74,4.36,37.69-38,134.18-80,188.31l1.37-171.33,53.29.13q.24-18.69.49-37.36H180.73V348.49l0,0v40.88c15.16-1.15,30.71-12.15,50-35.14,25.2-25.48,53.32-69,75.35-116.65,11.09-23.95,36.36-83.81,31.91-122.28Z" transform="translate(-17.52 -3.9)"/></svg>